{
  "accessors": [
    {
      "bufferView": 2,
      "componentType": 5126,
      "count": 2143,
      "max": [
        250.0,
        250.0,
        257.1820068359375
      ],
      "min": [
        -250.0,
        -250.0,
        -242.8179931640625
      ],
      "type": "VEC3"
    },
    {
      "bufferView": 2,
      "byteOffset": 25716,
      "componentType": 5126,
      "count": 2143,
      "max": [
        1.0,
        1.0,
        1.0
      ],
      "min": [
        -1.0,
        -1.0,
        -1.0
      ],
      "type": "VEC3"
    },
    {
      "bufferView": 1,
      "componentType": 5126,
      "count": 2143,
      "max": [
        1.0,
        1.0
      ],
      "min": [
        0.0,
        0.0
      ],
      "type": "VEC2"
    },
    {
      "bufferView": 0,
      "componentType": 5125,
      "count": 11904,
      "type": "SCALAR"
    },
    {
      "bufferView": 2,
      "byteOffset": 51432,
      "componentType": 5126,
      "count": 2143,
      "max": [
        -1193.5699462890625,
        -1.930999994277954,
        12.937999725341797
      ],
      "min": [
        -1218.5699462890625,
        -26.930999755859375,
        -12.062000274658203
      ],
      "type": "VEC3"
    },
    {
      "bufferView": 2,
      "byteOffset": 77148,
      "componentType": 5126,
      "count": 2143,
      "max": [
        1.0,
        1.0,
        1.0
      ],
      "min": [
        -1.0,
        -1.0,
        -1.0
      ],
      "type": "VEC3"
    },
    {
      "bufferView": 1,
      "byteOffset": 17144,
      "componentType": 5126,
      "count": 2143,
      "max": [
        1.0,
        1.0
      ],
      "min": [
        0.0,
        0.0
      ],
      "type": "VEC2"
    },
    {
      "bufferView": 0,
      "byteOffset": 47616,
      "componentType": 5125,
      "count": 11904,
      "type": "SCALAR"
    },
    {
      "bufferView": 2,
      "byteOffset": 102864,
      "componentType": 5126,
      "count": 2143,
      "max": [
        -1351.530029296875,
        49.95500183105469,
        52.67599868774414
      ],
      "min": [
        -1451.43798828125,
        -49.95500183105469,
        -47.29499816894531
      ],
      "type": "VEC3"
    },
    {
      "bufferView": 2,
      "byteOffset": 128580,
      "componentType": 5126,
      "count": 2143,
      "max": [
        0.9990811944007874,
        0.9990952610969543,
        0.9997095465660095
      ],
      "min": [
        -0.9990811944007874,
        -0.9990952610969543,
        -0.9997095465660095
      ],
      "type": "VEC3"
    },
    {
      "bufferView": 1,
      "byteOffset": 34288,
      "componentType": 5126,
      "count": 2143,
      "max": [
        1.0,
        1.0
      ],
      "min": [
        0.0,
        0.0
      ],
      "type": "VEC2"
    },
    {
      "bufferView": 0,
      "byteOffset": 95232,
      "componentType": 5125,
      "count": 11904,
      "type": "SCALAR"
    },
    {
      "bufferView": 2,
      "byteOffset": 154296,
      "componentType": 5126,
      "count": 1296,
      "max": [
        -1370.4010009765625,
        5.0,
        70.64199829101563
      ],
      "min": [
        -1438.7020263671875,
        -5.0,
        -70.58499908447266
      ],
      "type": "VEC3"
    },
    {
      "bufferView": 2,
      "byteOffset": 169848,
      "componentType": 5126,
      "count": 1296,
      "max": [
        0.9962388277053833,
        1.0,
        0.9170597791671753
      ],
      "min": [
        -0.9962388277053833,
        -1.0,
        -0.9170597791671753
      ],
      "type": "VEC3"
    },
    {
      "bufferView": 1,
      "byteOffset": 51432,
      "componentType": 5126,
      "count": 1296,
      "max": [
        1.0,
        1.0
      ],
      "min": [
        0.0,
        0.0
      ],
      "type": "VEC2"
    },
    {
      "bufferView": 0,
      "byteOffset": 142848,
      "componentType": 5125,
      "count": 6912,
      "type": "SCALAR"
    }
  ],
  "asset": {
    "extras": {
      "author": "CalebChaffee (https://sketchfab.com/CalebMinecraft)",
      "license": "CC-BY-SA-4.0 (http://creativecommons.org/licenses/by-sa/4.0/)",
      "source": "https://sketchfab.com/3d-models/solar-eclipse-b11efc4ad12d470695ab3a363e430f1f",
      "title": "Solar Eclipse"
    },
    "generator": "Sketchfab-14.5.0",
    "version": "2.0"
  },
  "bufferViews": [
    {
      "buffer": 0,
      "byteLength": 170496,
      "name": "floatBufferViews",
      "target": 34963
    },
    {
      "buffer": 0,
      "byteLength": 61800,
      "byteOffset": 170496,
      "byteStride": 8,
      "name": "floatBufferViews",
      "target": 34962
    },
    {
      "buffer": 0,
      "byteLength": 185400,
      "byteOffset": 232296,
      "byteStride": 12,
      "name": "floatBufferViews",
      "target": 34962
    }
  ],
  "buffers": [
    {
      "byteLength": 417696,
      "uri": "scene.bin"
    }
  ],
  "images": [
    {
      "uri": "textures/Bilbao_da7712a6-ee69-4a36-8ddd-17cf2183192e_baseColor.jpeg"
    },
    {
      "uri": "textures/Jasper_0ed97983-c01a-42d3-9736-9299f914707b_baseColor.jpeg"
    }
  ],
  "materials": [
    {
      "doubleSided": true,
      "emissiveFactor": [
        1.0,
        0.3709710925778372,
        0.0
      ],
      "name": "Bavarian_10b86e5d-4535-45f5-8173-d84633bb61d4",
      "pbrMetallicRoughness": {
        "baseColorFactor": [
          1.0,
          0.21815952230455535,
          0.0,
          1.0
        ],
        "metallicFactor": 0.0
      }
    },
    {
      "doubleSided": true,
      "name": "Bilbao_da7712a6-ee69-4a36-8ddd-17cf2183192e",
      "pbrMetallicRoughness": {
        "baseColorTexture": {
          "index": 0
        },
        "metallicFactor": 0.0
      }
    },
    {
      "doubleSided": true,
      "name": "Jasper_0ed97983-c01a-42d3-9736-9299f914707b",
      "pbrMetallicRoughness": {
        "baseColorTexture": {
          "index": 1
        },
        "metallicFactor": 0.0
      }
    },
    {
      "alphaMode": "BLEND",
      "doubleSided": true,
      "name": "Windsurf_b9a17946-1b40-4848-9bf8-07092a988cdf",
      "pbrMetallicRoughness": {
        "baseColorFactor": [
          1.0,
          0.0,
          0.0,
          0.0
        ],
        "metallicFactor": 0.0
      }
    }
  ],
  "meshes": [
    {
      "name": "Object_0",
      "primitives": [
        {
          "attributes": {
            "NORMAL": 1,
            "POSITION": 0,
            "TEXCOORD_0": 2
          },
          "indices": 3,
          "material": 0,
          "mode": 4
        }
      ]
    },
    {
      "name": "Object_1",
      "primitives": [
        {
          "attributes": {
            "NORMAL": 5,
            "POSITION": 4,
            "TEXCOORD_0": 6
          },
          "indices": 7,
          "material": 1,
          "mode": 4
        }
      ]
    },
    {
      "name": "Object_2",
      "primitives": [
        {
          "attributes": {
            "NORMAL": 9,
            "POSITION": 8,
            "TEXCOORD_0": 10
          },
          "indices": 11,
          "material": 2,
          "mode": 4
        }
      ]
    },
    {
      "name": "Object_3",
      "primitives": [
        {
          "attributes": {
            "NORMAL": 13,
            "POSITION": 12,
            "TEXCOORD_0": 14
          },
          "indices": 15,
          "material": 3,
          "mode": 4
        }
      ]
    }
  ],
  "nodes": [
    {
      "children": [
        1
      ],
      "matrix": [
        0.0056070005521178246,
        0.0,
        0.0,
        0.0,
        0.0,
        1.2450042224094348e-18,
        -0.0056070005521178246,
        0.0,
        0.0,
        0.0056070005521178246,
        1.2450042224094348e-18,
        0.0,
        0.0,
        0.0,
        0.0,
        1.0
      ],
      "name": "Sketchfab_model"
    },
    {
      "children": [
        2,
        3,
        4,
        5
      ],
      "name": "Project Name.obj.cleaner.materialmerger.gles"
    },
    {
      "mesh": 0,
      "name": "Object_2"
    },
    {
      "mesh": 1,
      "name": "Object_3"
    },
    {
      "mesh": 2,
      "name": "Object_4"
    },
    {
      "mesh": 3,
      "name": "Object_5"
    }
  ],
  "samplers": [
    {
      "magFilter": 9729,
      "minFilter": 9987,
      "wrapS": 10497,
      "wrapT": 10497
    }
  ],
  "scene": 0,
  "scenes": [
    {
      "name": "Sketchfab_Scene",
      "nodes": [
        0
      ]
    }
  ],
  "textures": [
    {
      "sampler": 0,
      "source": 0
    },
    {
      "sampler": 0,
      "source": 1
    }
  ]
}
